<svg width="88" height="44" viewBox="0 0 88 44" fill="none" xmlns="http://www.w3.org/2000/svg">
<path d="M84.1403 5.80425C85.6225 5.75203 86.3645 4.88778 86.5297 3.61415C86.5618 2.08613 85.437 0.891682 84.0779 0.982655C82.6361 1.07194 81.7913 1.90755 81.6817 3.34123C81.5805 4.71089 82.744 5.85479 84.1403 5.80425Z" fill="white"/>
<path d="M74.4424 43.2954V38.0729H74.466C74.466 37.1143 74.466 36.154 74.466 35.1954C74.466 34.9899 74.466 34.786 74.466 34.5805C74.466 31.885 74.466 29.1895 74.466 26.494C74.466 23.1145 73.3564 20.1528 70.9872 17.7083C65.667 12.2145 56.949 11.9618 51.0622 16.9131L50.8935 17.0462L50.789 17.1389L50.6946 17.2231C50.59 17.3174 50.4888 17.4118 50.391 17.5078C50.3219 17.5735 50.2494 17.6358 50.1802 17.7032C50.1111 17.7706 50.0116 17.8852 49.9357 17.9762C49.3395 18.6195 48.8206 19.3302 48.3894 20.0938V1.03317H41.8602V1.40549H43.8331C44.0299 1.40549 44.2186 1.48359 44.3577 1.6226C44.4969 1.76162 44.5751 1.95016 44.5751 2.14676V4.2223V4.39919C44.5751 10.7404 44.5869 17.0816 44.5565 23.4228C44.5565 24.1405 44.4924 24.9828 44.1248 25.5522C40.4774 31.2128 36.0897 36.154 30.1001 39.4611C25.5707 41.9628 20.7884 42.4935 15.8409 41.0295C7.50901 38.5496 2.64916 29.6224 4.63896 20.2791C6.09591 13.4359 10.148 8.73054 17.028 6.99868C23.8339 5.28366 29.5588 7.36594 33.9734 12.8328C34.6241 13.6663 35.2239 14.5383 35.7693 15.4441C36.0054 15.8164 36.346 16.4347 36.346 16.4347H36.4523V15.717V9.73294H35.9464V13.6734L35.8132 13.7897C35.7219 13.6265 35.6217 13.4685 35.513 13.3163C35.459 13.2388 35.4017 13.1478 35.3444 13.0669C35.0071 12.5615 34.5603 11.8978 34.2432 11.5086C30.1506 6.22203 24.3971 4.5087 17.652 5.04106C5.4332 5.99797 -2.8734 18.4597 0.930842 30.0369C5.09932 42.726 20.7952 47.7919 32.2956 40.1451C36.6074 37.2811 39.9884 33.4838 43.0608 29.3799C43.4368 28.8744 43.8382 28.3909 44.57 27.4644C44.57 32.0434 44.57 36.0091 44.57 39.9749V43.2921H40.2717V43.9659H50.1027V43.2921H48.4468V36.8734C48.4923 33.0542 48.5597 29.2367 48.2984 25.4394C48.0522 21.8661 49.6626 19.6642 52.1127 17.6999C55.863 14.7062 60.018 13.7947 64.4799 15.9276C68.8203 17.9997 70.6365 21.6858 70.6381 26.3727V34.5721H70.6297V43.2954H66.3921V43.9693H76.0713V43.2954H74.4424Z" fill="white"/>
<path d="M87.9949 43.2955H86.366V36.8768C86.366 36.6292 86.366 36.3832 86.366 36.1355C86.366 35.615 86.366 35.0961 86.366 34.5755C86.3474 26.9725 86.3575 19.3678 86.3575 11.7648V9.60666H78.8907V9.97898H81.9934C82.0676 9.97831 82.1412 9.99233 82.2099 10.0202C82.2786 10.0481 82.3411 10.0893 82.3938 10.1415C82.4465 10.1937 82.4883 10.2557 82.5168 10.3241C82.5453 10.3925 82.56 10.4659 82.56 10.54V34.5755V43.2955H78.3157V43.9694H79.8485C79.8483 43.9722 79.8483 43.975 79.8485 43.9778H87.2091V43.9694H88L87.9949 43.2955Z" fill="white"/>
</svg>
